<?xml version="1.0" standalone="no"?>
<!DOCTYPE svg PUBLIC "-//W3C//DTD SVG 20010904//EN"
 "http://www.w3.org/TR/2001/REC-SVG-20010904/DTD/svg10.dtd">
<svg version="1.0" xmlns="http://www.w3.org/2000/svg"
 width="256.000000pt" height="256.000000pt" viewBox="0 0 256.000000 256.000000"
 preserveAspectRatio="xMidYMid meet">

<g transform="translate(0.000000,256.000000) scale(0.100000,-0.100000)"
fill="#000000" stroke="none">
<path d="M630 1665 l0 -34 -77 -3 -78 -3 -3 -37 -3 -38 -74 0 -74 0 -3 -37
c-3 -36 -5 -38 -40 -41 l-38 -3 0 -75 0 -74 -34 0 c-22 0 -36 -6 -40 -16 -3
-9 -6 -62 -6 -119 l0 -104 -37 -3 c-36 -3 -38 -5 -38 -38 0 -33 2 -35 38 -38
31 -3 37 -7 37 -27 0 -56 -3 -55 200 -55 l189 0 3 -37 3 -38 78 -3 77 -3 0
-34 0 -35 585 0 585 0 0 35 0 34 73 3 72 3 3 37 3 38 192 2 192 3 3 37 c3 35
5 37 40 40 35 3 37 5 37 38 0 33 -2 35 -37 38 l-37 3 -3 117 -3 117 -37 3 -38
3 0 75 0 74 -34 0 c-33 0 -35 2 -38 38 l-3 37 -77 3 -77 3 -3 37 -3 37 -77 3
-78 3 0 34 0 35 -660 0 -660 0 0 -35z m1010 -85 l0 -40 -40 0 -40 0 0 40 0 40
40 0 40 0 0 -40z m-850 -75 l0 -45 -39 0 c-44 0 -58 20 -47 66 5 20 12 24 46
24 l40 0 0 -45z m224 -31 c11 -4 16 -19 16 -51 l0 -44 -47 3 c-46 3 -48 4 -51
36 -5 52 30 76 82 56z m1014 -3 c8 -5 12 -23 10 -47 -3 -38 -4 -39 -45 -42
l-43 -3 0 44 c0 24 3 47 7 50 9 10 55 8 71 -2z m-222 -95 c12 -49 2 -61 -46
-61 -42 0 -45 2 -48 28 -6 46 4 57 47 57 35 0 42 -4 47 -24z m-1251 -106 c0
-48 -12 -58 -61 -46 -20 5 -24 13 -24 45 0 47 6 53 50 49 34 -3 35 -4 35 -48z
m535 -265 l0 -155 -190 0 -190 0 0 40 0 39 -77 3 -78 3 -3 38 c-3 36 -4 37
-43 37 -38 0 -39 1 -39 35 l0 34 78 3 77 3 3 38 3 37 230 0 229 0 0 -155z
m862 118 l3 -38 78 -3 77 -3 0 -34 c0 -32 -2 -34 -37 -37 -35 -3 -38 -6 -43
-38 l-5 -35 -77 -3 -78 -3 0 -39 0 -40 -190 0 -190 0 -2 78 c-3 94 0 202 7
219 3 10 58 13 229 13 l225 0 3 -37z"/>
</g>
</svg>
