<?xml version="1.0" standalone="no"?>
<!DOCTYPE svg PUBLIC "-//W3C//DTD SVG 20010904//EN"
 "http://www.w3.org/TR/2001/REC-SVG-20010904/DTD/svg10.dtd">
<svg version="1.0" xmlns="http://www.w3.org/2000/svg"
 width="1000.000000pt" height="1000.000000pt" viewBox="0 0 1000.000000 1000.000000"
 preserveAspectRatio="xMidYMid meet">
<metadata>
Created by potrace 1.16, written by Peter Selinger 2001-2019
</metadata>
<g transform="translate(0.000000,1000.000000) scale(0.100000,-0.100000)"
fill="#000000" stroke="none">
<path d="M2760 7230 l0 -130 -265 0 -265 0 0 -135 0 -135 -260 0 -260 0 0
-130 0 -130 -130 0 -130 0 0 -265 0 -265 -135 0 -135 0 0 -395 0 -395 -130 0
-130 0 0 -135 0 -135 130 0 130 0 0 -130 0 -130 660 0 660 0 0 -130 0 -130
260 0 260 0 0 -135 0 -135 1980 0 1980 0 0 135 0 135 260 0 260 0 0 130 0 130
660 0 660 0 0 130 0 130 130 0 130 0 0 135 0 135 -130 0 -130 0 0 395 0 395
-135 0 -135 0 0 265 0 265 -130 0 -130 0 0 130 0 130 -260 0 -260 0 0 135 0
135 -265 0 -265 0 0 130 0 130 -2240 0 -2240 0 0 -130z m3428 -272 l-3 -133
-132 -3 -133 -3 0 136 0 135 135 0 136 0 -3 -132z m-2898 -263 l0 -135 -130 0
-130 0 0 135 0 135 130 0 130 0 0 -135z m790 -265 l0 -130 -135 0 -135 0 0
130 0 130 135 0 135 0 0 -130z m3420 0 l0 -130 -135 0 -135 0 0 130 0 130 135
0 135 0 0 -130z m-790 -260 l0 -130 -135 0 -135 0 0 130 0 130 135 0 135 0 0
-130z m-4200 -265 l0 -135 -135 0 -135 0 0 135 0 135 135 0 135 0 0 -135z
m1830 -920 l0 -525 -655 0 -655 0 0 135 0 135 -260 0 -260 0 0 130 0 130 -135
0 -135 0 0 130 0 130 265 0 265 0 0 130 0 130 785 0 785 0 0 -525z m2890 395
l0 -130 265 0 265 0 0 -130 0 -129 -132 -3 -133 -3 -3 -127 -3 -128 -259 0
-260 0 0 -135 0 -135 -655 0 -655 0 0 525 0 525 785 0 785 0 0 -130z"/>
<path d="M930 3180 l0 -440 85 0 85 0 0 -85 0 -85 180 0 180 0 0 85 0 85 85 0
85 0 0 440 0 440 -90 0 -90 0 0 -435 0 -435 -170 0 -170 0 0 435 0 435 -90 0
-90 0 0 -440z"/>
<path d="M1870 3095 l0 -525 90 0 90 0 0 345 0 345 85 0 85 0 0 -85 0 -85 85
0 85 0 0 -260 0 -260 95 0 95 0 0 525 0 525 -95 0 -95 0 0 -175 0 -175 -80 0
-80 0 0 90 0 90 -90 0 -90 0 0 85 0 85 -90 0 -90 0 0 -525z"/>
<path d="M2990 3535 l0 -85 -90 0 -90 0 0 -440 0 -440 95 0 95 0 0 175 0 175
170 0 170 0 0 -175 0 -175 90 0 90 0 0 440 0 440 -85 0 -85 0 0 85 0 85 -180
0 -180 0 0 -85z m350 -265 l0 -170 -170 0 -170 0 0 170 0 170 170 0 170 0 0
-170z"/>
<path d="M3930 3535 l0 -85 -85 0 -85 0 0 -355 0 -355 85 0 85 0 0 -85 0 -85
180 0 180 0 0 85 0 85 85 0 85 0 0 265 0 265 -175 0 -175 0 0 -90 0 -90 85 0
85 0 0 -170 0 -170 -170 0 -170 0 0 345 0 345 260 0 260 0 0 90 0 90 -265 0
-265 0 0 -85z"/>
<path d="M4700 3095 l0 -525 90 0 90 0 0 525 0 525 -90 0 -90 0 0 -525z"/>
<path d="M5120 3355 l0 -265 260 0 260 0 0 -170 0 -170 -260 0 -260 0 0 -90 0
-90 350 0 350 0 0 350 0 350 -260 0 -260 0 0 85 0 85 260 0 260 0 0 90 0 90
-350 0 -350 0 0 -265z"/>
<path d="M6060 3180 l0 -440 90 0 90 0 0 -85 0 -85 90 0 90 0 0 85 0 85 80 0
80 0 0 -85 0 -85 95 0 95 0 0 85 0 85 85 0 85 0 0 440 0 440 -90 0 -90 0 0
-435 0 -435 -85 0 -85 0 0 175 0 175 -90 0 -90 0 0 -175 0 -175 -85 0 -85 0 0
435 0 435 -90 0 -90 0 0 -440z"/>
<path d="M7350 3535 l0 -85 -85 0 -85 0 0 -440 0 -440 90 0 90 0 0 175 0 175
170 0 170 0 0 -175 0 -175 90 0 90 0 0 440 0 440 -85 0 -85 0 0 85 0 85 -180
0 -180 0 0 -85z m350 -265 l0 -170 -170 0 -170 0 0 170 0 170 170 0 170 0 0
-170z"/>
<path d="M8120 3095 l0 -525 90 0 90 0 0 260 0 260 265 0 265 0 0 265 0 265
-355 0 -355 0 0 -525z m520 260 l0 -85 -170 0 -170 0 0 85 0 85 170 0 170 0 0
-85z"/>
</g>
</svg>
