<svg id="svg" version="1.1" xmlns="http://www.w3.org/2000/svg" xmlns:xlink="http://www.w3.org/1999/xlink" width="400" height="400" viewBox="0, 0, 400,400"><g id="svgg"><path id="path0" d="M236.800 121.600 L 236.800 126.800 242.000 126.800 L 247.200 126.800 247.200 121.600 L 247.200 116.400 242.000 116.400 L 236.800 116.400 236.800 121.600 M121.200 132.400 L 121.200 137.600 126.400 137.600 L 131.600 137.600 131.600 132.400 L 131.600 127.200 126.400 127.200 L 121.200 127.200 121.200 132.400 M152.800 142.800 L 152.800 148.000 158.000 148.000 L 163.200 148.000 163.200 142.800 L 163.200 137.600 158.000 137.600 L 152.800 137.600 152.800 142.800 M289.600 142.800 L 289.600 148.000 294.800 148.000 L 300.000 148.000 300.000 142.800 L 300.000 137.600 294.800 137.600 L 289.600 137.600 289.600 142.800 M258.000 153.200 L 258.000 158.400 263.200 158.400 L 268.400 158.400 268.400 153.200 L 268.400 148.000 263.200 148.000 L 258.000 148.000 258.000 153.200 M89.600 163.600 L 89.600 168.800 94.800 168.800 L 100.000 168.800 100.000 163.600 L 100.000 158.400 94.800 158.400 L 89.600 158.400 89.600 163.600 M110.712 184.900 L 110.600 190.200 100.100 190.307 L 89.600 190.413 89.600 195.407 L 89.600 200.400 95.000 200.400 L 100.400 200.400 100.400 205.600 L 100.400 210.800 110.800 210.800 L 121.200 210.800 121.200 216.000 L 121.200 221.200 147.400 221.200 L 173.600 221.200 173.600 200.400 L 173.600 179.600 142.212 179.600 L 110.823 179.600 110.712 184.900 M226.400 200.400 L 226.400 221.200 252.600 221.200 L 278.800 221.200 278.800 216.000 L 278.800 210.800 289.200 210.800 L 299.600 210.800 299.600 205.600 L 299.600 200.400 305.000 200.400 L 310.400 200.400 310.400 195.445 L 310.400 190.491 299.800 190.196 L 289.200 189.902 289.200 184.751 L 289.200 179.600 257.800 179.600 L 226.400 179.600 226.400 200.400 " stroke="none" fill="#e4ceb1" fill-rule="evenodd"></path><path id="path1" d="M110.400 110.800 L 110.400 116.000 99.800 116.000 L 89.200 116.000 89.200 121.400 L 89.200 126.800 78.800 126.800 L 68.400 126.800 68.400 132.000 L 68.400 137.200 63.200 137.200 L 58.000 137.200 58.000 147.800 L 58.000 158.400 52.600 158.400 L 47.200 158.400 47.200 174.200 L 47.200 190.000 42.000 190.000 L 36.800 190.000 36.800 195.400 L 36.800 200.800 42.000 200.800 L 47.200 200.800 47.200 206.000 L 47.200 211.200 73.600 211.200 L 100.000 211.200 100.000 216.400 L 100.000 221.600 110.400 221.600 L 120.800 221.600 120.800 227.000 L 120.800 232.400 200.000 232.400 L 279.200 232.400 279.200 227.000 L 279.200 221.600 289.600 221.600 L 300.000 221.600 300.000 216.400 L 300.000 211.200 326.400 211.200 L 352.800 211.200 352.800 206.000 L 352.800 200.800 358.000 200.800 L 363.200 200.800 363.200 195.400 L 363.200 190.000 358.000 190.000 L 352.800 190.000 352.800 174.200 L 352.800 158.400 347.400 158.400 L 342.000 158.400 342.000 147.800 L 342.000 137.200 336.800 137.200 L 331.600 137.200 331.600 132.000 L 331.600 126.800 321.200 126.800 L 310.800 126.800 310.800 121.400 L 310.800 116.000 300.200 116.000 L 289.600 116.000 289.600 110.800 L 289.600 105.600 200.000 105.600 L 110.400 105.600 110.400 110.800 M289.200 121.600 L 289.200 126.800 299.800 126.800 L 310.400 126.800 310.400 132.200 L 310.400 137.600 321.000 137.600 L 331.600 137.600 331.600 148.000 L 331.600 158.400 336.800 158.400 L 342.000 158.400 342.000 174.200 L 342.000 190.000 347.200 190.000 L 352.400 190.000 352.400 195.200 L 352.400 200.400 334.064 200.400 C 323.980 200.400,312.190 200.519,307.864 200.663 L 300.000 200.927 300.000 206.063 L 300.000 211.200 289.400 211.200 L 278.800 211.200 278.800 216.400 L 278.800 221.600 252.400 221.600 L 226.000 221.600 226.000 211.200 L 226.000 200.800 221.012 200.800 L 216.024 200.800 215.912 205.900 L 215.800 211.000 210.488 211.112 L 205.177 211.223 205.288 205.912 L 205.400 200.600 210.488 200.488 L 215.576 200.376 215.688 195.288 L 215.800 190.200 220.900 190.088 L 226.000 189.976 226.000 184.788 L 226.000 179.600 200.000 179.600 L 174.000 179.600 174.000 195.400 L 174.000 211.200 179.200 211.200 L 184.400 211.200 184.400 216.137 L 184.400 221.073 176.536 221.337 C 172.210 221.481,157.990 221.600,144.936 221.600 L 121.200 221.600 121.200 216.400 L 121.200 211.200 110.600 211.200 L 100.000 211.200 100.000 206.063 L 100.000 200.927 92.136 200.663 C 87.810 200.519,76.020 200.400,65.936 200.400 L 47.600 200.400 47.600 195.200 L 47.600 190.000 52.800 190.000 L 58.000 190.000 58.000 174.200 L 58.000 158.400 63.200 158.400 L 68.400 158.400 68.400 148.000 L 68.400 137.600 79.000 137.600 L 89.600 137.600 89.600 132.200 L 89.600 126.800 100.200 126.800 L 110.800 126.800 110.800 121.600 L 110.800 116.400 200.000 116.400 L 289.200 116.400 289.200 121.600 M194.800 195.400 L 194.800 200.800 189.600 200.800 L 184.400 200.800 184.400 195.400 L 184.400 190.000 189.600 190.000 L 194.800 190.000 194.800 195.400 " stroke="none" fill="#131a1e" fill-rule="evenodd"></path><path id="path2" d="M110.800 121.800 L 110.800 127.200 100.200 127.200 L 89.600 127.200 89.600 132.400 L 89.600 137.600 79.200 137.600 L 68.800 137.600 68.800 147.988 L 68.800 158.377 63.500 158.488 L 58.200 158.600 58.095 174.300 L 57.991 190.000 52.795 190.000 L 47.600 190.000 47.600 195.200 L 47.600 200.400 68.600 200.400 L 89.600 200.400 89.600 195.200 L 89.600 190.000 100.200 190.000 L 110.800 190.000 110.800 184.800 L 110.800 179.600 142.200 179.600 L 173.600 179.600 173.600 148.000 L 173.600 116.400 142.200 116.400 L 110.800 116.400 110.800 121.800 M226.400 148.000 L 226.400 179.600 257.800 179.600 L 289.200 179.600 289.200 184.800 L 289.200 190.000 299.800 190.000 L 310.400 190.000 310.400 195.200 L 310.400 200.400 331.400 200.400 L 352.400 200.400 352.400 195.200 L 352.400 190.000 347.205 190.000 L 342.009 190.000 341.905 174.300 L 341.800 158.600 336.500 158.488 L 331.200 158.377 331.200 147.988 L 331.200 137.600 320.800 137.600 L 310.400 137.600 310.400 132.400 L 310.400 127.200 299.800 127.200 L 289.200 127.200 289.200 121.800 L 289.200 116.400 268.412 116.400 L 247.623 116.400 247.512 121.700 L 247.400 127.000 242.200 127.000 L 237.000 127.000 236.888 121.700 L 236.777 116.400 231.588 116.400 L 226.400 116.400 226.400 148.000 M131.600 132.200 L 131.600 137.600 126.400 137.600 L 121.200 137.600 121.200 132.200 L 121.200 126.800 126.400 126.800 L 131.600 126.800 131.600 132.200 M163.200 142.800 L 163.200 148.000 158.000 148.000 L 152.800 148.000 152.800 142.800 L 152.800 137.600 158.000 137.600 L 163.200 137.600 163.200 142.800 M300.000 142.800 L 300.000 148.000 294.600 148.000 L 289.200 148.000 289.200 142.800 L 289.200 137.600 294.600 137.600 L 300.000 137.600 300.000 142.800 M268.400 153.200 L 268.400 158.400 263.200 158.400 L 258.000 158.400 258.000 153.200 L 258.000 148.000 263.200 148.000 L 268.400 148.000 268.400 153.200 M100.312 163.700 L 100.200 169.000 94.900 169.112 L 89.600 169.223 89.600 163.812 L 89.600 158.400 95.012 158.400 L 100.423 158.400 100.312 163.700 M37.200 272.800 L 37.200 290.400 40.600 290.400 L 44.000 290.400 44.000 293.800 L 44.000 297.200 51.200 297.200 L 58.400 297.200 58.400 293.800 L 58.400 290.400 61.800 290.400 L 65.200 290.400 65.200 272.800 L 65.200 255.200 61.600 255.200 L 58.000 255.200 58.000 272.600 L 58.000 290.000 51.200 290.000 L 44.400 290.000 44.400 272.600 L 44.400 255.200 40.800 255.200 L 37.200 255.200 37.200 272.800 M74.800 276.200 L 74.800 297.200 78.400 297.200 L 82.000 297.200 82.000 283.400 L 82.000 269.600 85.400 269.600 L 88.800 269.600 88.800 273.000 L 88.800 276.400 92.200 276.400 L 95.600 276.400 95.600 286.800 L 95.600 297.200 99.400 297.200 L 103.200 297.200 103.200 276.200 L 103.200 255.200 99.400 255.200 L 95.600 255.200 95.600 262.200 L 95.600 269.200 92.400 269.200 L 89.200 269.200 89.200 265.600 L 89.200 262.000 85.600 262.000 L 82.000 262.000 82.000 258.600 L 82.000 255.200 78.400 255.200 L 74.800 255.200 74.800 276.200 M119.600 258.600 L 119.600 262.000 116.000 262.000 L 112.400 262.000 112.400 279.600 L 112.400 297.200 116.200 297.200 L 120.000 297.200 120.000 290.200 L 120.000 283.200 126.800 283.200 L 133.600 283.200 133.600 290.200 L 133.600 297.200 137.200 297.200 L 140.800 297.200 140.800 279.600 L 140.800 262.000 137.400 262.000 L 134.000 262.000 134.000 258.600 L 134.000 255.200 126.800 255.200 L 119.600 255.200 119.600 258.600 M157.200 258.600 L 157.200 262.000 153.800 262.000 L 150.400 262.000 150.400 276.200 L 150.400 290.400 153.800 290.400 L 157.200 290.400 157.200 293.800 L 157.200 297.200 164.400 297.200 L 171.600 297.200 171.600 293.800 L 171.600 290.400 175.000 290.400 L 178.400 290.400 178.400 279.800 L 178.400 269.200 171.400 269.200 L 164.400 269.200 164.400 272.800 L 164.400 276.400 167.800 276.400 L 171.200 276.400 171.200 283.200 L 171.200 290.000 164.400 290.000 L 157.600 290.000 157.600 276.200 L 157.600 262.400 168.000 262.400 L 178.400 262.400 178.400 258.800 L 178.400 255.200 167.800 255.200 L 157.200 255.200 157.200 258.600 M188.000 276.200 L 188.000 297.200 191.600 297.200 L 195.200 297.200 195.200 276.200 L 195.200 255.200 191.600 255.200 L 188.000 255.200 188.000 276.200 M133.600 269.200 L 133.600 276.000 126.800 276.000 L 120.000 276.000 120.000 269.200 L 120.000 262.400 126.800 262.400 L 133.600 262.400 133.600 269.200 " stroke="none" fill="#bc561b" fill-rule="evenodd"></path><path id="path3" d="M173.599 168.900 L 173.599 221.400 178.999 221.278 L 184.400 221.157 184.400 216.178 L 184.400 211.200 179.200 211.200 L 174.000 211.200 174.000 195.400 L 174.000 179.600 200.000 179.600 L 226.000 179.600 226.000 184.788 L 226.000 189.976 220.900 190.088 L 215.800 190.200 215.688 195.288 L 215.576 200.376 210.488 200.488 L 205.400 200.600 205.288 205.912 L 205.177 211.223 210.488 211.112 L 215.800 211.000 215.912 205.900 L 216.024 200.800 221.005 200.800 L 225.987 200.800 226.100 211.300 C 226.163 217.075,226.256 198.085,226.307 169.100 L 226.400 116.400 200.000 116.400 L 173.600 116.400 173.599 168.900 M94.924 127.099 C 97.962 127.167,102.822 127.167,105.724 127.099 C 108.626 127.031,106.140 126.975,100.200 126.975 C 94.260 126.975,91.886 127.031,94.924 127.099 M294.524 127.099 C 297.562 127.167,302.422 127.167,305.324 127.099 C 308.226 127.031,305.740 126.975,299.800 126.975 C 293.860 126.975,291.486 127.031,294.524 127.099 M68.575 148.000 C 68.575 153.830,68.631 156.215,68.699 153.300 C 68.767 150.385,68.767 145.615,68.699 142.700 C 68.631 139.785,68.575 142.170,68.575 148.000 M331.375 148.000 C 331.375 153.830,331.431 156.215,331.499 153.300 C 331.567 150.385,331.567 145.615,331.499 142.700 C 331.431 139.785,331.375 142.170,331.375 148.000 M184.400 195.400 L 184.400 200.800 189.600 200.800 L 194.800 200.800 194.800 195.400 L 194.800 190.000 189.600 190.000 L 184.400 190.000 184.400 195.400 M94.799 200.693 L 100.000 200.823 100.000 206.012 L 100.000 211.200 110.700 211.107 L 121.400 211.014 110.912 210.900 L 100.424 210.787 100.312 205.693 L 100.200 200.600 94.899 200.582 L 89.599 200.564 94.799 200.693 M302.500 200.697 C 303.985 200.774,306.415 200.774,307.900 200.697 C 309.385 200.620,308.170 200.557,305.200 200.557 C 302.230 200.557,301.015 200.620,302.500 200.697 M281.300 211.097 C 282.785 211.174,285.215 211.174,286.700 211.097 C 288.185 211.020,286.970 210.957,284.000 210.957 C 281.030 210.957,279.815 211.020,281.300 211.097 M204.800 265.800 L 204.800 276.400 215.200 276.400 L 225.600 276.400 225.600 283.200 L 225.600 290.000 215.200 290.000 L 204.800 290.000 204.800 293.600 L 204.800 297.200 218.800 297.200 L 232.800 297.200 232.800 283.200 L 232.800 269.200 222.400 269.200 L 212.000 269.200 212.000 265.800 L 212.000 262.400 222.400 262.400 L 232.800 262.400 232.800 258.800 L 232.800 255.200 218.800 255.200 L 204.800 255.200 204.800 265.800 M242.400 272.800 L 242.400 290.400 246.000 290.400 L 249.600 290.400 249.600 293.800 L 249.600 297.200 253.200 297.200 L 256.800 297.200 256.800 293.800 L 256.800 290.400 260.000 290.400 L 263.200 290.400 263.200 293.800 L 263.200 297.200 267.000 297.200 L 270.800 297.200 270.800 293.800 L 270.800 290.400 274.200 290.400 L 277.600 290.400 277.600 272.800 L 277.600 255.200 274.000 255.200 L 270.400 255.200 270.400 272.600 L 270.400 290.000 267.000 290.000 L 263.600 290.000 263.600 283.000 L 263.600 276.000 260.000 276.000 L 256.400 276.000 256.400 283.000 L 256.400 290.000 253.000 290.000 L 249.600 290.000 249.600 272.600 L 249.600 255.200 246.000 255.200 L 242.400 255.200 242.400 272.800 M294.000 258.600 L 294.000 262.000 290.600 262.000 L 287.200 262.000 287.200 279.600 L 287.200 297.200 290.800 297.200 L 294.400 297.200 294.400 290.200 L 294.400 283.200 301.200 283.200 L 308.000 283.200 308.000 290.200 L 308.000 297.200 311.600 297.200 L 315.200 297.200 315.200 279.600 L 315.200 262.000 311.800 262.000 L 308.400 262.000 308.400 258.600 L 308.400 255.200 301.200 255.200 L 294.000 255.200 294.000 258.600 M324.800 276.200 L 324.800 297.200 328.400 297.200 L 332.000 297.200 332.000 286.800 L 332.000 276.400 342.600 276.400 L 353.200 276.400 353.200 265.800 L 353.200 255.200 339.000 255.200 L 324.800 255.200 324.800 276.200 M308.000 269.200 L 308.000 276.000 301.200 276.000 L 294.400 276.000 294.400 269.200 L 294.400 262.400 301.200 262.400 L 308.000 262.400 308.000 269.200 M345.600 265.800 L 345.600 269.200 338.800 269.200 L 332.000 269.200 332.000 265.800 L 332.000 262.400 338.800 262.400 L 345.600 262.400 345.600 265.800 " stroke="none" fill="#323c4a" fill-rule="evenodd"></path><path id="path4" d="M247.286 121.488 L 247.200 126.776 242.100 126.901 L 237.000 127.026 242.113 127.113 C 248.155 127.216,247.666 127.754,247.499 121.178 L 247.373 116.200 247.286 121.488 M123.700 127.097 C 125.185 127.174,127.615 127.174,129.100 127.097 C 130.585 127.020,129.370 126.957,126.400 126.957 C 123.430 126.957,122.215 127.020,123.700 127.097 M289.357 142.800 C 289.357 145.770,289.420 146.985,289.497 145.500 C 289.574 144.015,289.574 141.585,289.497 140.100 C 289.420 138.615,289.357 139.830,289.357 142.800 M100.086 163.488 L 100.000 168.777 94.700 168.901 L 89.400 169.025 94.713 169.113 C 100.984 169.216,100.467 169.765,100.299 163.178 L 100.173 158.200 100.086 163.488 M94.700 190.299 C 97.615 190.367,102.385 190.367,105.300 190.299 C 108.215 190.231,105.830 190.175,100.000 190.175 C 94.170 190.175,91.785 190.231,94.700 190.299 M302.500 190.297 C 303.985 190.374,306.415 190.374,307.900 190.297 C 309.385 190.220,308.170 190.157,305.200 190.157 C 302.230 190.157,301.015 190.220,302.500 190.297 M299.686 205.488 L 299.600 210.777 294.300 210.901 L 289.000 211.025 294.313 211.113 C 300.584 211.216,300.067 211.765,299.899 205.178 L 299.773 200.200 299.686 205.488 M134.329 221.500 C 141.660 221.561,153.540 221.561,160.729 221.500 C 167.918 221.439,161.920 221.389,147.400 221.389 C 132.880 221.389,126.998 221.439,134.329 221.500 M239.529 221.500 C 246.860 221.561,258.740 221.561,265.929 221.500 C 273.118 221.439,267.120 221.389,252.600 221.389 C 238.080 221.389,232.198 221.439,239.529 221.500 " stroke="none" fill="#a4947c" fill-rule="evenodd"></path></g></svg>